<?xml version="1.0" encoding="UTF-8"?>
<svg xmlns="http://www.w3.org/2000/svg" xmlns:xlink="http://www.w3.org/1999/xlink" version="1.2" id="Ebene_1" x="0px" y="0px" viewBox="0 0 493.7 477.4" overflow="visible" xml:space="preserve">
<g>
	<path fill="#FFFFFF" d="M164.2,290.4c0.3-6.5-1.1-11.6-3.6-17.9c-8.6,4-16.9,7.6-24.9,11.7c-55.1,28.7-119.7,0-132.5-60.7   C-9.7,162.2,35.7,114,89.9,113.3c38.5-0.5,66.9,16.8,84.4,51.4c3.7,7.3,7.4,14.5,11.5,22.4c5.3-2.4,10.5-4.7,15.4-6.9   c1-5.7-3.4-7.3-6.1-9.8c-18.2-17.4-34.1-35.8-38.6-62C149,64.7,173.1,22,214.8,6.8C255-8,300.3,6.3,322,40.6   c24.8,39.2,20.2,84.1-11.9,116.5c-6.1,6.2-12,12.6-18.1,19.1c3.2,6,7.9,9.3,12.8,13.2c10.3-15.3,15.9-32.6,28.1-46.3   c41.2-45.9,117.1-38.3,147,15.6c17.5,31.4,17.2,63.5-2,93.8c-20.2,31.8-50.3,45.5-87.8,42.4c-18-1.5-33.4-10.5-49-18.7   c-2-1-4-1.9-6.3-3c-4.1,4.7-6.5,10-9.1,16.1c10.7,4.1,21.8,4.3,32.5,5.9c36.8,5.4,68.2,38.1,74.5,78.6   c5.5,34.9-16.4,76.1-47.4,91.8c-57.4,29.1-121.5-4.4-133.1-62.1c-3-14.8-2-29.9,1.2-44.7c1-4.8,2.5-9.5,1.2-14.7   c-4.9-3.5-10.4-2.5-16.3-2.2c-2.3,8,0.9,15.4,2,22.9c5.8,39.4-4.3,72.3-38.2,96c-50.1,35-124.2,7.5-139.2-51.8   c-14-55.2,21.7-107.1,78.5-114.4C148.8,293.7,156.1,291.9,164.2,290.4z M280.2,236.4c6.7-5.5,3.9-8.9,0.3-12.5   c-26.9-26.7-53.5-53.8-80.6-80.2c-22-21.5-29.1-48.9-17.4-77.6c11-27.1,32.4-42,61.2-43.1c29.2-1.2,51.7,12.5,64.9,39   c12.7,25.5,9.2,50.1-7.6,72.7c-5.4,7.2-12.1,13.5-18,20.1c1,2.9,2.4,4.5,6.6,4.8c3.5-3.7,7.7-8.3,12-12.7   c24.2-24.8,29.2-63.7,12-93.2c-16.6-28.5-53.2-45.4-86.5-36.3c-57.1,15.6-77.7,84.7-37.1,127.6c15.3,16.1,31.1,31.7,46.6,47.5   C251.1,207,265.6,221.5,280.2,236.4z M283.2,282.2c4.7-9.3,8.9-18.1,13.4-26.8c15.4-29.9,29.7-60.4,46.7-89.3   c19.9-33.9,67.1-41.5,98.6-17.6c33.1,25,38.2,71.1,11.2,101c-24.3,27-57.6,31.7-91.6,12.9c-2.8-1.6-5.7-3-8.2-4.4   c-2.6,1.7-3.8,3.5-3.3,6.4c22,14.4,45.4,21.7,72,13.7c33.9-10.2,56.1-39.4,56-74.2c-0.1-35.9-23.5-65.7-59-75.1   c-31.8-8.4-68.3,6.3-84.9,36.4c-20.5,37.5-39.4,75.9-58.9,113.9c-0.4,0.7,0,1.9,0,2.8C277.8,283.5,280.3,283.4,283.2,282.2z    M159.4,312.3c-4.9-9.3-11.5-4.1-16.5-3.6c-48.1,5.1-80,53.7-65.7,99.5c11.7,37.5,50.5,61,88.3,53.4c39.8-8,66.4-42.2,62.2-82.3   c-3.1-29.7-8.4-59.3-13.4-88.8c-2.3-13.6-1.3-27.9-7.5-41.4c-8.2,2.3-5.6,8.6-5,12.9c5.4,35,10.8,70.1,16.9,105   c9.5,53.9-28.1,87.5-69,87.8c-30.9,0.3-59.2-23.4-66.7-52.7c-7.6-29.7,5.9-60.5,32.9-77.4C129,316.7,144.2,317.6,159.4,312.3z    M274.2,356.4c-4.8-2.1-6.2,1.1-6.8,4.4c-3.5,17.5-4.6,34.8,2,52.1c13,34,49.9,55.1,85.8,48.7c37-6.5,62.2-37.6,63.8-74.7   c1.5-35.2-25.9-71-62.1-77c-41.5-6.8-82.9-13.7-124.4-20.5c-0.8-0.1-1.7,0.7-2.5,1c-1.1,3.4-0.5,6,2.6,7.5c5,0.7,9.8,1.3,14.7,2.1   c32.8,5.4,65.5,13,98.5,15.4c30.5,2.2,61,29.3,65.7,62.3c5.5,39-32.9,81.2-72.1,77.4c-45.7-4.4-73.4-41.4-65.1-86.6   C274.8,364.6,276.4,360.4,274.2,356.4z M168.1,184c-3.7-8.6-8-16.6-13.2-24.1c-22.9-33.3-71.1-42.3-104.8-19.8   c-20.9,14-31.4,33.1-34,58.6c-2.9,28.9,8.4,50.6,30.1,66.9c28,21,58.1,19.1,88.3,3.6c26.4-13.5,53.3-26.3,79.5-40.3   c8.2-4.4,18.2-6.3,25-14.3c-5.3-4.5-9.8-1.8-14,0.3c-30.1,15.4-60.2,30.8-90.1,46.5c-27.1,14.1-54.3,19.1-81.3,0.8   C20.7,240,12.7,195.5,35,163.5c21.5-30.8,64-38.2,96.5-17.1c15.1,9.9,23.1,25.2,30.5,40.2C165,187.5,166.5,186.5,168.1,184z    M270.1,140.9c4.4-5,8.6-10,13.1-14.7c16.2-16.9,17.7-43.7,3.4-63.9c-12.6-17.9-39.8-25.1-59.9-16c-33.4,15.1-40.8,55.5-14.7,82.2   c25.2,25.7,50.8,50.9,76.3,76.2c1.8,1.8,3.2,4.3,6.5,3.8c4.3-2.9,2.8-5.6-0.2-8.6c-5.8-5.7-11.7-11.4-17.3-17.3   c-21.5-22.3-45.4-42.5-64.9-66.7c-12.7-15.7-10.6-36.9,3.1-52c13.5-14.9,33.4-18.4,50.7-8.9c17.5,9.6,25.6,29.3,20.6,48.3   c-2.9,11.1-10.7,18.4-18.4,26C265.3,132.5,261.8,135.6,270.1,140.9z M162.3,340.9c1.1-6.1-1.7-7.1-5.5-7   c-14,0.5-27.4,3.4-38.2,12.8c-18.2,15.8-22.7,42.4-11.4,62.5c11.8,20.9,36.5,31,58.8,24c22.9-7.2,36.8-27.9,34.4-52.8   c-1.3-13.9-3.8-27.7-5.9-41.5c-3.9-25.1-8.1-50.1-12-74.5c-3.3-1.7-5.3-1.2-7.8,1.1c5.6,35.2,11,70.9,17.1,106.5   c5.4,31.2-14.5,57.9-42.5,55.8c-21.9-1.7-39.1-19.4-39.9-41.1c-0.7-21.8,15.2-39.8,37.6-42.8C152.1,343.1,157.1,341.9,162.3,340.9z    M365.2,234.6c-2.6,2.7-3.2,4.8-0.1,7.5c12,10.9,40.3,14.9,55.9,7.8c20.4-9.2,31.6-30.2,28.9-53.8c-2.4-20.7-19.4-37-43.4-41.8   c-17-3.4-40.4,8.8-49.7,26.5C343,207,329.6,233.5,316.2,260c-4.3,8.6-10,16.6-11.9,26.5c7.3,4.1,8-2.3,9.8-5.7   c16.6-32.2,32.9-64.5,49.6-96.7c10.3-19.9,34.8-27.3,54.6-18.2c20.1,9.2,31.1,34.4,21.6,55.2c-10.1,21.9-35.1,30.7-56.1,21.5   C377.7,239.9,372.1,235.6,365.2,234.6z M246.1,132.4c8.4-9.1,17.3-15.8,23.7-25.1c6.8-10,6.4-23.9-1.1-32.7   c-7.7-9.1-23.8-13.1-34.1-8.4c-11,5-17.6,17.8-15.8,29.9C221.2,113,236.3,119.7,246.1,132.4z M174.3,353.6   c-11.1,1.6-21.5,2.4-31.5,4.8c-13.7,3.4-21.5,17.2-19.2,32.2c1.9,12.7,13.3,22.1,26.9,22.2c14.7,0.1,26.8-9.1,28.2-22.9   C179.9,377.9,176.5,366.2,174.3,353.6z M363.4,216.1c8.5,4.6,16.3,9.4,24.5,13.3c15.4,7.2,31.7,1,38.7-14   c5.5-11.8,0-29.1-11.2-35.1c-15-8.1-32-3.3-40.2,11.8C371.1,199.7,367.5,207.7,363.4,216.1z M234.4,317.9c-1.3,6.2,0.4,7.8,4.6,8.4   c35.7,5.7,71.3,11.9,107,17.4c24,3.7,40.2,22.4,38.1,45.2c-2.1,22.7-22.4,40.2-45,38.8c-22.3-1.3-39.4-20.8-38.8-44.7   c0.2-7.1,1.2-14.2,1.8-21.2c-1.8-2.4-3.8-2.7-6.7-1.2c-0.6,4.4-1.2,9.2-2.1,14c-5.9,34.1,16.1,60.2,50.6,59.8   c25.1-0.2,45.2-19.9,47.3-44.4c2.6-29.7-19.4-50.5-41.8-54c-23.8-3.6-47.6-7.5-71.5-11.3C263.5,322.6,249.2,320.3,234.4,317.9z    M318.1,353.2c-1.6,12.1-3.6,22.4-4,32.7c-0.5,13.1,7.5,22.2,21.6,26.5c9.5,2.9,22.2-1.6,28.7-10.3c7-9.2,7-23.2,0.1-32.9   C353.1,353.2,335,357.4,318.1,353.2z M129.6,215.4c-4.9-9.3-9.1-18.2-14.1-26.5c-7.6-12.4-23.4-16.2-36.1-9.4   c-13.3,7.1-18.7,22.3-12.8,35.9c5.9,13.6,21.3,20.7,34.9,15.1C110.9,226.6,120.6,222.3,129.6,215.4z M142.8,196.6   c-7.7-30.6-39.5-49.3-65.9-39.8c-25.9,9.4-41.1,38-31.3,64.8c9.6,26.3,41.1,39.9,65.9,27.8c26.4-12.8,52.7-25.8,78.5-39.6   c9.4-5,20.8-7.1,28.5-16.7c-6.4-3.9-10.8-0.2-15.1,2c-32,15.9-63.6,32.6-96,47.8c-21.6,10.1-47-1.7-55-23.9   c-8.1-22.4,4.2-48,26.6-55.5c18.5-6.1,43.1,0.5,54.2,27.5C134.9,195.4,136.6,198.8,142.8,196.6z M251.7,226.3   c-10.8,5.3-20.3,10-29.8,14.6c1.3,11.6,1.8,22.5,5,33.5c10.5,1.4,20.7,2.8,31.2,4.1c7.6-8.6,10.8-18.7,16-28.4   C266.6,242.2,259.6,234.7,251.7,226.3z"></path>
</g>
</svg>
