<svg xmlns="http://www.w3.org/2000/svg" id="Ebene_1" viewBox="0 0 1751.27 477.4"><defs><style>.cls-1{fill:#fff;}</style></defs><path class="cls-1" d="m164.24,290.4c.28-6.48-1.05-11.64-3.64-17.93-8.63,4.04-16.92,7.55-24.88,11.7-55.06,28.66-119.72.03-132.52-60.71-12.9-61.22,32.54-109.5,86.68-110.18,38.52-.49,66.95,16.83,84.44,51.44,3.67,7.27,7.44,14.49,11.53,22.44,5.28-2.36,10.49-4.68,15.4-6.87.97-5.71-3.41-7.28-6.07-9.83-18.15-17.37-34.08-35.84-38.59-61.96-7.56-43.82,16.48-86.48,58.16-101.75,40.21-14.73,85.54-.43,107.26,33.84,24.85,39.21,20.25,84.06-11.85,116.5-6.13,6.19-11.99,12.64-18.07,19.07,3.23,5.97,7.87,9.35,12.78,13.18,10.32-15.3,15.86-32.62,28.09-46.26,41.16-45.88,117.06-38.26,146.98,15.55,17.48,31.43,17.23,63.45-2.04,93.83-20.17,31.8-50.31,45.46-87.78,42.42-18.05-1.46-33.42-10.49-49-18.73-1.98-1.05-4.05-1.93-6.25-2.97-4.12,4.73-6.48,10.01-9.1,16.1,10.71,4.06,21.8,4.32,32.49,5.9,36.81,5.43,68.15,38.14,74.5,78.64,5.48,34.95-16.38,76.12-47.36,91.85-57.35,29.11-121.51-4.44-133.11-62.11-2.99-14.84-2-29.91,1.22-44.75,1.03-4.77,2.48-9.47,1.18-14.66-4.92-3.5-10.45-2.46-16.33-2.21-2.3,7.98.87,15.41,1.97,22.95,5.78,39.38-4.33,72.32-38.22,96.01-50.14,35.05-124.18,7.54-139.22-51.84-13.98-55.23,21.7-107.14,78.53-114.45,7.39-.95,14.69-2.7,22.81-4.23Zm116-54.02c6.72-5.54,3.91-8.93.33-12.49-26.87-26.73-53.46-53.76-80.6-80.2-22.04-21.48-29.05-48.91-17.42-77.63,10.99-27.13,32.42-41.96,61.16-43.11,29.22-1.17,51.73,12.46,64.89,38.97,12.67,25.52,9.25,50.08-7.6,72.67-5.4,7.24-12.05,13.54-17.95,20.07.99,2.92,2.39,4.51,6.63,4.76,3.52-3.73,7.7-8.27,12.01-12.69,24.24-24.83,29.21-63.71,12.04-93.15-16.62-28.49-53.22-45.38-86.52-36.27-57.06,15.6-77.74,84.73-37.08,127.62,15.26,16.11,31.06,31.71,46.64,47.51,14.38,14.58,28.8,29.11,43.48,43.95Zm2.95,45.81c4.65-9.3,8.93-18.09,13.42-26.78,15.43-29.86,29.73-60.39,46.72-89.34,19.93-33.94,67.05-41.47,98.57-17.63,33.07,25.02,38.18,71.06,11.21,101-24.32,27-57.63,31.67-91.57,12.86-2.8-1.55-5.66-3.02-8.23-4.39-2.6,1.71-3.81,3.48-3.28,6.44,22,14.44,45.43,21.72,72.04,13.72,33.85-10.18,56.08-39.4,55.98-74.16-.11-35.93-23.5-65.7-59.01-75.08-31.84-8.42-68.34,6.27-84.86,36.42-20.53,37.47-39.38,75.87-58.9,113.9-.38.75-.05,1.86-.05,2.76,2.54,1.61,5.03,1.48,7.96.28Zm-123.75,30.09c-4.86-9.25-11.48-4.12-16.51-3.59-48.08,5.09-80.03,53.66-65.75,99.51,11.68,37.51,50.48,60.97,88.26,53.38,39.77-8,66.45-42.17,62.22-82.3-3.13-29.74-8.36-59.28-13.35-88.79-2.3-13.61-1.3-27.92-7.5-41.36-8.21,2.32-5.63,8.56-4.96,12.91,5.39,35.04,10.77,70.09,16.93,105,9.52,53.94-28.1,87.47-68.96,87.82-30.92.26-59.2-23.4-66.67-52.7-7.57-29.67,5.95-60.49,32.88-77.37,12.95-8.12,28.12-7.18,43.4-12.51Zm114.76,44.08c-4.78-2.06-6.18,1.12-6.84,4.43-3.48,17.49-4.58,34.85,1.97,52.05,12.95,34,49.88,55.09,85.84,48.73,36.96-6.54,62.23-37.62,63.78-74.72,1.47-35.16-25.91-71.01-62.06-76.98-41.47-6.85-82.94-13.69-124.42-20.45-.79-.13-1.73.67-2.52,1-1.07,3.37-.52,5.97,2.55,7.54,4.98.71,9.84,1.31,14.66,2.09,32.81,5.35,65.45,13.04,98.48,15.45,30.47,2.22,61,29.31,65.69,62.25,5.55,38.96-32.9,81.19-72.12,77.43-45.66-4.38-73.41-41.37-65.11-86.59.74-4.01,2.32-8.22.11-12.24Zm-106.15-172.38c-3.72-8.62-7.99-16.6-13.18-24.13-22.95-33.28-71.08-42.31-104.82-19.77-20.89,13.95-31.43,33.13-33.96,58.57-2.88,28.91,8.36,50.55,30.07,66.85,28.01,21.04,58.1,19.06,88.31,3.58,26.43-13.54,53.27-26.31,79.46-40.31,8.25-4.41,18.24-6.3,25.04-14.26-5.34-4.49-9.8-1.83-14.02.33-30.09,15.41-60.18,30.82-90.14,46.47-27.05,14.13-54.33,19.07-81.33.84-32.79-22.14-40.78-66.6-18.46-98.63,21.46-30.79,64.04-38.23,96.48-17.05,15.14,9.89,23.07,25.17,30.46,40.15,3.04.9,4.52-.15,6.1-2.64Zm102.02-43.12c4.4-4.96,8.58-9.96,13.08-14.66,16.2-16.91,17.69-43.68,3.41-63.87-12.62-17.85-39.76-25.12-59.87-16.04-33.45,15.1-40.85,55.49-14.66,82.23,25.16,25.68,50.83,50.88,76.3,76.25,1.77,1.76,3.19,4.3,6.51,3.84,4.31-2.89,2.82-5.63-.18-8.56-5.85-5.71-11.67-11.45-17.34-17.33-21.54-22.33-45.39-42.5-64.91-66.68-12.66-15.68-10.56-36.86,3.09-51.97,13.47-14.9,33.38-18.41,50.7-8.93,17.46,9.55,25.6,29.25,20.58,48.34-2.92,11.11-10.7,18.4-18.36,25.96-3.13,3.08-6.6,6.2,1.66,11.43Zm-107.79,200.08c1.11-6.13-1.68-7.11-5.45-6.97-14,.52-27.42,3.43-38.2,12.81-18.18,15.81-22.73,42.36-11.39,62.46,11.8,20.92,36.52,31.01,58.75,23.99,22.95-7.25,36.75-27.95,34.38-52.85-1.33-13.91-3.77-27.73-5.95-41.55-3.94-25.06-8.06-50.1-12.01-74.53-3.26-1.72-5.3-1.18-7.81,1.08,5.62,35.21,10.99,70.94,17.1,106.54,5.36,31.25-14.55,57.87-42.46,55.76-21.93-1.65-39.15-19.42-39.85-41.11-.71-21.81,15.19-39.82,37.58-42.78,5.12-.68,10.17-1.88,15.31-2.86Zm202.93-106.38c-2.59,2.66-3.16,4.76-.14,7.48,12.03,10.85,40.25,14.91,55.91,7.81,20.38-9.23,31.63-30.2,28.88-53.82-2.41-20.72-19.37-37.03-43.45-41.82-16.98-3.37-40.44,8.79-49.67,26.45-13.75,26.31-27.18,52.78-40.5,79.31-4.31,8.58-10.05,16.63-11.86,26.47,7.32,4.13,8.05-2.26,9.8-5.66,16.62-32.17,32.89-64.52,49.56-96.67,10.3-19.86,34.75-27.31,54.59-18.23,20.09,9.19,31.14,34.42,21.57,55.21-10.08,21.9-35.11,30.74-56.07,21.52-6.18-2.72-11.72-7.03-18.62-8.06Zm-119.07-102.12c8.38-9.09,17.32-15.83,23.66-25.08,6.85-10.01,6.36-23.93-1.09-32.73-7.68-9.07-23.81-13.05-34.08-8.41-11,4.97-17.55,17.76-15.84,29.94,2.37,16.82,17.54,23.56,27.35,36.27Zm-71.86,221.17c-11.14,1.64-21.54,2.36-31.49,4.84-13.75,3.43-21.45,17.24-19.24,32.17,1.88,12.7,13.32,22.14,26.93,22.24,14.72.1,26.78-9.12,28.18-22.95,1.22-12.01-2.14-23.7-4.39-36.3Zm189.1-137.53c8.48,4.63,16.26,9.44,24.49,13.25,15.44,7.16,31.74,1.03,38.73-14.03,5.47-11.78-.03-29.06-11.17-35.07-15.04-8.12-32.02-3.26-40.17,11.81-4.15,7.67-7.75,15.64-11.88,24.04Zm-129.01,101.82c-1.29,6.18.44,7.78,4.59,8.44,35.68,5.7,71.28,11.89,107,17.37,23.96,3.68,40.19,22.41,38.08,45.19-2.11,22.68-22.42,40.2-45.05,38.84-22.34-1.34-39.41-20.8-38.83-44.67.17-7.12,1.22-14.21,1.85-21.16-1.76-2.39-3.77-2.66-6.75-1.16-.64,4.4-1.22,9.2-2.05,13.96-5.94,34.07,16.13,60.17,50.63,59.83,25.08-.25,45.17-19.89,47.35-44.45,2.64-29.73-19.38-50.54-41.84-53.97-23.84-3.64-47.64-7.5-71.45-11.28-14.37-2.28-28.73-4.59-43.52-6.95Zm83.72,35.32c-1.56,12.13-3.59,22.38-4.01,32.69-.53,13.07,7.54,22.21,21.58,26.45,9.55,2.89,22.21-1.64,28.73-10.26,6.95-9.2,7.01-23.24.15-32.87-11.45-16.07-29.53-11.82-46.44-16.02Zm-188.52-137.83c-4.94-9.33-9.06-18.2-14.15-26.48-7.59-12.35-23.43-16.19-36.15-9.42-13.31,7.09-18.72,22.32-12.77,35.93,5.93,13.58,21.25,20.73,34.9,15.1,9.53-3.93,19.14-8.17,28.17-15.14Zm13.23-18.8c-7.68-30.6-39.47-49.35-65.92-39.8-25.94,9.36-41.05,38.02-31.27,64.83,9.59,26.27,41.09,39.86,65.9,27.85,26.37-12.77,52.66-25.76,78.47-39.63,9.36-5.03,20.76-7.12,28.52-16.67-6.39-3.93-10.76-.18-15.11,1.98-32,15.92-63.64,32.61-95.99,47.79-21.58,10.13-47.02-1.74-55.01-23.9-8.07-22.37,4.2-48,26.59-55.46,18.46-6.15,43.07.53,54.15,27.5,1.79,4.35,3.48,7.76,9.67,5.5Zm108.89,29.71c-10.78,5.3-20.3,9.98-29.79,14.64,1.28,11.57,1.81,22.51,5.01,33.52,10.49,1.39,20.71,2.75,31.16,4.14,7.56-8.61,10.84-18.73,16.03-28.39-7.51-8.01-14.55-15.52-22.42-23.91Z"></path><path class="cls-1" d="m631.04,29.65h7.26c15.25,0,28.23,5.25,38.94,15.73,10.7,10.49,16.06,22.85,16.06,37.07s-5.54,26.48-16.61,36.74c-11.08,10.27-23.29,15.4-36.63,15.4h-1.76v60.06h-7.26V29.65Zm7.26,98.78h1.76c12.32,0,23.06-4.54,32.23-13.64,9.16-9.09,13.75-19.87,13.75-32.34s-4.66-23.32-13.97-32.56c-9.32-9.24-19.99-13.86-32.01-13.86h-1.76v92.4Z"></path><path class="cls-1" d="m744.03,99.39c-7.78,0-14.63,2.94-20.57,8.8-5.94,5.87-8.91,12.69-8.91,20.46v66h-7.04v-99h7.04v14.74c2.64-4.98,6.74-9.09,12.32-12.32,5.57-3.22,11.8-4.84,18.7-4.84s13.49,2.35,19.8,7.04v8.8c-6.46-6.45-13.57-9.68-21.34-9.68Z"></path><path class="cls-1" d="m874.16,95.65v99h-7.04v-24.64c-4.11,8.36-10.27,14.96-18.48,19.8-8.22,4.84-17.02,7.26-26.4,7.26-14.38,0-26.7-5.09-36.96-15.29-10.27-10.19-15.4-22.4-15.4-36.63s5.13-26.43,15.4-36.63c10.26-10.19,22.58-15.29,36.96-15.29,9.38,0,18.37,2.5,26.95,7.48,8.58,4.99,14.55,11.59,17.93,19.8v-24.86h7.04Zm-97.24,49.72c0,12.32,4.51,22.99,13.53,32.01s19.72,13.53,32.12,13.53,22.99-4.51,31.79-13.53c8.8-9.02,13.2-19.72,13.2-32.12s-4.44-23.13-13.31-32.23c-8.88-9.09-19.47-13.64-31.79-13.64s-22.99,4.58-32.01,13.75c-9.02,9.17-13.53,19.91-13.53,32.23Z"></path><path class="cls-1" d="m933.33,134.58l39.82,60.06h-8.14l-35.64-53.9-35.42,53.9h-7.04l38.94-59.4-26.18-39.6h8.14l22,33.44,22-33.44h7.04l-25.52,38.94Z"></path><path class="cls-1" d="m990.64,71.66c-4.26,0-6.38-1.98-6.38-5.94s2.12-5.94,6.38-5.94,6.38,1.98,6.38,5.94-2.13,5.94-6.38,5.94Zm3.52,24.2v98.78h-7.04v-98.78h7.04Z"></path><path class="cls-1" d="m1038.6,99.16c-3.82,0-7.19,1.25-10.12,3.74-2.94,2.5-4.4,5.58-4.4,9.24s1.65,7.04,4.95,10.12c3.3,3.08,7.26,5.91,11.88,8.47,4.62,2.57,9.27,5.32,13.97,8.25,4.69,2.94,8.69,6.68,11.99,11.22,3.3,4.55,4.95,9.76,4.95,15.62,0,8.66-3.27,16.03-9.79,22.11-6.53,6.09-14.41,9.13-23.65,9.13-5.87,0-11.33-1.29-16.39-3.85-5.06-2.56-8.77-5.97-11.11-10.23v-10.56c5.57,12.32,14.52,18.48,26.84,18.48,7.62,0,14.04-2.34,19.25-7.04,5.2-4.69,7.81-9.93,7.81-15.73s-1.65-10.67-4.95-14.63-7.3-7.33-11.99-10.12c-4.7-2.79-9.35-5.54-13.97-8.25-4.62-2.71-8.58-6.01-11.88-9.9-3.3-3.88-4.95-8.43-4.95-13.64s2.09-9.6,6.27-13.2c4.18-3.59,9.57-5.39,16.17-5.39s12.25,2.57,16.94,7.7v9.02c-4.7-7.04-10.64-10.56-17.82-10.56Z"></path><path class="cls-1" d="m638.52,249.65v158.62h51.04v6.38h-58.3v-165h7.26Z"></path><path class="cls-1" d="m744.49,417.28h-1.98c-13.94,0-26.07-5.24-36.41-15.73-10.34-10.48-15.51-22.69-15.51-36.63s5.13-25.99,15.4-36.19c10.26-10.19,22.95-15.29,38.06-15.29s28.08,6.02,38.94,18.04l-69.08,68.2c9.53,7.63,18.7,11.44,27.5,11.44s16.68-2.01,23.65-6.05c6.96-4.03,12.72-9.42,17.27-16.17v11.22c-10.42,11.44-23.03,17.16-37.84,17.16Zm-2.31-97.68c-11.66,0-22,4.51-31.02,13.53-9.02,9.02-13.53,19.4-13.53,31.13s3.88,22,11.66,30.8l64.02-63.58c-9.09-7.92-19.47-11.88-31.13-11.88Z"></path><path class="cls-1" d="m800.08,414.65v-165h7.04v90.2c3.96-8.06,10.15-14.52,18.59-19.36,8.43-4.84,17.19-7.26,26.29-7.26,14.52,0,26.87,5.1,37.07,15.29,10.19,10.2,15.29,22.41,15.29,36.63s-5.1,26.44-15.29,36.63c-10.2,10.2-22.55,15.29-37.07,15.29-8.8,0-17.38-2.39-25.74-7.15-8.36-4.76-14.74-11.18-19.14-19.25v23.98h-7.04Zm6.6-49.28c0,12.32,4.51,22.99,13.53,32.01,9.02,9.02,19.72,13.53,32.12,13.53s22.99-4.51,31.79-13.53c8.8-9.02,13.2-19.72,13.2-32.12s-4.44-23.13-13.31-32.23c-8.88-9.09-19.47-13.64-31.79-13.64s-22.99,4.58-32.01,13.75c-9.02,9.17-13.53,19.91-13.53,32.23Z"></path><path class="cls-1" d="m970.42,417.28h-1.98c-13.94,0-26.07-5.24-36.41-15.73-10.34-10.48-15.51-22.69-15.51-36.63s5.13-25.99,15.4-36.19c10.26-10.19,22.95-15.29,38.06-15.29s28.08,6.02,38.94,18.04l-69.08,68.2c9.53,7.63,18.7,11.44,27.5,11.44s16.68-2.01,23.65-6.05c6.96-4.03,12.72-9.42,17.27-16.17v11.22c-10.42,11.44-23.03,17.16-37.84,17.16Zm-2.31-97.68c-11.66,0-22,4.51-31.02,13.53-9.02,9.02-13.53,19.4-13.53,31.13s3.88,22,11.66,30.8l64.02-63.58c-9.09-7.92-19.47-11.88-31.13-11.88Z"></path><path class="cls-1" d="m1033.06,414.65h-7.04v-99h7.04v20.02c7.48-14.96,20.24-22.44,38.28-22.44,12.32,0,22.66,4.25,31.02,12.76,8.36,8.51,12.54,18.85,12.54,31.02v57.64h-7.04v-57.64c0-10.12-3.56-18.92-10.67-26.4-7.12-7.48-15.73-11.22-25.85-11.22s-19.03,3.74-26.73,11.22c-7.7,7.48-11.55,16.28-11.55,26.4v57.64Z"></path><path class="cls-1" d="m1157.05,319.16c-3.82,0-7.19,1.25-10.12,3.74-2.94,2.5-4.4,5.58-4.4,9.24s1.65,7.04,4.95,10.12c3.3,3.08,7.26,5.91,11.88,8.47,4.62,2.57,9.27,5.32,13.97,8.25,4.69,2.94,8.69,6.68,11.99,11.22,3.3,4.55,4.95,9.76,4.95,15.62,0,8.66-3.27,16.03-9.79,22.11-6.53,6.09-14.41,9.13-23.65,9.13-5.87,0-11.33-1.29-16.39-3.85-5.06-2.56-8.77-5.97-11.11-10.23v-10.56c5.57,12.32,14.52,18.48,26.84,18.48,7.62,0,14.04-2.34,19.25-7.04,5.2-4.69,7.81-9.93,7.81-15.73s-1.65-10.67-4.95-14.63-7.3-7.33-11.99-10.12c-4.7-2.79-9.35-5.54-13.97-8.25-4.62-2.71-8.58-6.01-11.88-9.9-3.3-3.88-4.95-8.43-4.95-13.64s2.09-9.6,6.27-13.2c4.18-3.59,9.57-5.39,16.17-5.39s12.25,2.57,16.94,7.7v9.02c-4.7-7.04-10.64-10.56-17.82-10.56Z"></path><path class="cls-1" d="m1298.55,315.65h7.04v89.76c0,17.01-4.7,30.43-14.08,40.26-9.39,9.83-21.71,14.74-36.96,14.74-8.36,0-16.5-1.91-24.42-5.72-7.92-3.82-14.08-8.8-18.48-14.96v-10.12c3.81,7.04,9.79,12.9,17.93,17.6,8.14,4.69,16.46,7.04,24.97,7.04,12.9,0,23.46-4.37,31.68-13.09,8.21-8.73,12.32-20.65,12.32-35.75v-14.74c-3.96,8.07-10.2,14.52-18.7,19.36-8.51,4.84-17.31,7.26-26.4,7.26-14.38,0-26.7-5.09-36.96-15.29-10.27-10.19-15.4-22.4-15.4-36.63s5.13-26.43,15.4-36.63c10.26-10.19,22.58-15.29,36.96-15.29,9.53,0,18.44,2.39,26.73,7.15,8.28,4.77,14.41,11.33,18.37,19.69v-24.64Zm-90.42,49.72c0,12.47,4.51,23.21,13.53,32.23,9.02,9.02,19.72,13.53,32.12,13.53s22.99-4.51,31.79-13.53c8.8-9.02,13.2-19.76,13.2-32.23s-4.4-23.21-13.2-32.23c-8.8-9.02-19.4-13.53-31.79-13.53s-23.1,4.51-32.12,13.53-13.53,19.77-13.53,32.23Z"></path><path class="cls-1" d="m1378.01,417.28h-1.98c-13.94,0-26.07-5.24-36.41-15.73-10.34-10.48-15.51-22.69-15.51-36.63s5.13-25.99,15.4-36.19c10.26-10.19,22.95-15.29,38.06-15.29s28.08,6.02,38.94,18.04l-69.08,68.2c9.53,7.63,18.7,11.44,27.5,11.44s16.68-2.01,23.65-6.05c6.96-4.03,12.72-9.42,17.27-16.17v11.22c-10.42,11.44-23.03,17.16-37.84,17.16Zm-2.31-97.68c-11.66,0-22,4.51-31.02,13.53-9.02,9.02-13.53,19.4-13.53,31.13s3.88,22,11.66,30.8l64.02-63.58c-9.09-7.92-19.47-11.88-31.13-11.88Z"></path><path class="cls-1" d="m1471.22,275.61v6.16c-8.51,0-15.73,2.94-21.67,8.8-5.94,5.87-8.91,13.28-8.91,22.22v57.86h30.8v6.16h-30.8v37.84h-7.04v-101.86c0-10.85,3.66-19.76,11-26.73,7.33-6.96,16.2-10.45,26.62-10.45Z"></path><path class="cls-1" d="m1565.96,315.65h7.04v99h-7.04v-20.02c-7.48,14.96-20.24,22.44-38.28,22.44-12.32,0-22.66-4.25-31.02-12.76-8.36-8.5-12.54-18.84-12.54-31.02v-57.64h7.04v57.64c0,10.12,3.55,18.92,10.67,26.4,7.11,7.48,15.73,11.22,25.85,11.22s19.03-3.74,26.73-11.22c7.7-7.48,11.55-16.28,11.55-26.4v-57.64Zm-48.84-23.76c-4.26,0-6.38-1.98-6.38-5.94s2.12-5.94,6.38-5.94,6.38,1.98,6.38,5.94-2.13,5.94-6.38,5.94Zm23.21,0c-4.04,0-6.05-1.98-6.05-5.94s2.01-5.94,6.05-5.94,6.05,1.98,6.05,5.94-2.02,5.94-6.05,5.94Z"></path><path class="cls-1" d="m1603.64,414.65h-7.04v-164.78h7.04v84.92c7.33-14.37,20.02-21.56,38.06-21.56,12.32,0,22.69,4.25,31.13,12.76,8.43,8.51,12.65,18.85,12.65,31.02v57.64h-7.04v-57.64c0-10.26-3.6-19.1-10.78-26.51-7.19-7.4-15.84-11.11-25.96-11.11s-19,3.74-26.62,11.22c-7.63,7.48-11.44,16.28-11.44,26.4v57.64Z"></path><path class="cls-1" d="m1744.24,410.46v6.16c-10.42,0-19.29-3.48-26.62-10.45-7.34-6.96-11-15.87-11-26.73v-129.8h7.04v129.8c0,8.95,2.97,16.36,8.91,22.22,5.94,5.87,13.16,8.8,21.67,8.8Z"></path></svg>
